<svg version="1.1" xmlns="http://www.w3.org/2000/svg" viewBox="0 0 636.25 183.39453125" width="636.25" height="183.39453125"><!-- svg-source:excalidraw --><metadata></metadata><defs><style class="style-fonts">
      </style></defs><g stroke-linecap="round" transform="translate(10 10) rotate(0 308.125 81.697265625)"><path d="M32 0 C148.61 1.74, 266.88 4.49, 584.25 0 M32 0 C218.19 -4.68, 405.17 -4.64, 584.25 0 M584.25 0 C607.35 2.69, 618.33 12.67, 616.25 32 M584.25 0 C609.9 -0.78, 618.92 9.92, 616.25 32 M616.25 32 C620.79 63.3, 621.31 100.31, 616.25 131.39 M616.25 32 C616 67.63, 615.33 104.62, 616.25 131.39 M616.25 131.39 C616.71 152.1, 608.19 165.69, 584.25 163.39 M616.25 131.39 C619.52 154.44, 606.09 165.7, 584.25 163.39 M584.25 163.39 C471.82 161.1, 357.92 163.43, 32 163.39 M584.25 163.39 C422.36 166.6, 261.39 166.31, 32 163.39 M32 163.39 C9.41 162.99, 3.93 156.08, 0 131.39 M32 163.39 C11.84 167.12, -1.58 153.93, 0 131.39 M0 131.39 C-2.48 88.8, 2.22 55.05, 0 32 M0 131.39 C-1.72 94.45, -1.74 55.21, 0 32 M0 32 C1.12 9.94, 14.42 -0.58, 32 0 M0 32 C-1.1 12.2, 9.03 4.44, 32 0" stroke="#1e1e1e" stroke-width="2" fill="none"></path></g></svg>