<svg version="1.1" xmlns="http://www.w3.org/2000/svg" viewBox="0 0 636.25 183.39453125" width="636.25" height="183.39453125"><!-- svg-source:excalidraw --><metadata></metadata><defs><style class="style-fonts">
      </style></defs><g stroke-linecap="round" transform="translate(10 10) rotate(0 308.125 81.697265625)"><path d="M32 0 C170.17 3.05, 310.96 3.81, 584.25 0 M32 0 C233.99 -4.24, 437.38 -3.96, 584.25 0 M584.25 0 C604.83 3.87, 612.55 14.43, 616.25 32 M584.25 0 C608.63 2.07, 612.76 7.77, 616.25 32 M616.25 32 C619.68 69.44, 618.08 99.92, 616.25 131.39 M616.25 32 C614.35 63.19, 615.71 95.73, 616.25 131.39 M616.25 131.39 C617.67 151.65, 602.07 166.92, 584.25 163.39 M616.25 131.39 C611.8 154.22, 602.29 163.05, 584.25 163.39 M584.25 163.39 C459.61 158.49, 336.54 159.69, 32 163.39 M584.25 163.39 C434.43 165.6, 283.17 164.92, 32 163.39 M32 163.39 C7.98 164.98, 2.29 156.58, 0 131.39 M32 163.39 C8.73 167.77, 2.2 154.16, 0 131.39 M0 131.39 C4.06 105.81, 4.07 79.31, 0 32 M0 131.39 C0.89 91.59, 2.45 56.43, 0 32 M0 32 C-2.18 8.81, 7.82 0.05, 32 0 M0 32 C3.58 8.08, 12.44 4.36, 32 0" stroke="#1e1e1e" stroke-width="2" fill="none"></path></g></svg>