<svg version="1.1" xmlns="http://www.w3.org/2000/svg" viewBox="0 0 636.25 183.39453125" width="636.25" height="183.39453125"><!-- svg-source:excalidraw --><metadata></metadata><defs><style class="style-fonts">
      </style></defs><g stroke-linecap="round" transform="translate(10 10) rotate(0 308.125 81.697265625)"><path d="M32 0 C154.7 -2.18, 277.24 -3.25, 584.25 0 M32 0 C230.19 -1.75, 428.13 -2.89, 584.25 0 M584.25 0 C609.48 -1.23, 619.17 12.76, 616.25 32 M584.25 0 C606.16 -2.97, 612.92 6.16, 616.25 32 M616.25 32 C619.08 56.49, 619.33 77.89, 616.25 131.39 M616.25 32 C618.01 62.45, 618.14 92.25, 616.25 131.39 M616.25 131.39 C616.14 155.38, 605.28 165.15, 584.25 163.39 M616.25 131.39 C619.98 150.46, 603.37 164.16, 584.25 163.39 M584.25 163.39 C466.72 164.29, 346.45 164.25, 32 163.39 M584.25 163.39 C437.58 167.66, 290.32 166.87, 32 163.39 M32 163.39 C13.04 165.41, 3.48 156.48, 0 131.39 M32 163.39 C7.65 163.72, 3.51 153.02, 0 131.39 M0 131.39 C3.19 97.15, -1.52 65.4, 0 32 M0 131.39 C-3.54 107, -3.91 80.6, 0 32 M0 32 C3.34 7.76, 12.06 2.63, 32 0 M0 32 C1.44 9.41, 8.09 -0.39, 32 0" stroke="#1e1e1e" stroke-width="2" fill="none"></path></g></svg>